<svg width="20" height="21" viewBox="0 0 20 21" fill="none" xmlns="http://www.w3.org/2000/svg">
<path d="M16.8208 1.33338C18.0251 1.82453 18.9605 2.71911 19.421 3.82033C19.8816 4.92156 19.8297 6.13921 19.2766 7.20542L14.2722 16.8538C13.8889 17.5929 13.3448 18.2578 12.6712 18.8103C11.9975 19.3629 11.2074 19.7924 10.346 20.0742C9.48457 20.3561 8.56871 20.4849 7.65069 20.4532C6.73267 20.4215 5.83046 20.2299 4.9956 19.8894C4.16073 19.549 3.40955 19.0663 2.78494 18.4689C2.16032 17.8715 1.67452 17.1711 1.35525 16.4077C1.03599 15.6443 0.889521 14.8329 0.924209 14.0198C0.958897 13.2066 1.17406 12.4077 1.55742 11.6686L4.89369 5.23631L6.71009 5.97706L3.37382 12.4093C2.8208 13.4755 2.76886 14.6932 3.22942 15.7944C3.68998 16.8956 4.62531 17.7902 5.82966 18.2814C7.03401 18.7725 8.40872 18.82 9.65137 18.4134C10.894 18.0067 11.9028 17.1793 12.4558 16.1131L17.4602 6.46467C17.6245 6.14791 17.7167 5.80551 17.7316 5.45702C17.7465 5.10853 17.6837 4.76078 17.5469 4.43362C17.4101 4.10646 17.2018 3.80629 16.9342 3.55027C16.6665 3.29424 16.3445 3.08736 15.9867 2.94145C15.6289 2.79553 15.2423 2.71344 14.8488 2.69985C14.4554 2.68626 14.0629 2.74144 13.6937 2.86225C13.3245 2.98306 12.9859 3.16712 12.6972 3.40393C12.4085 3.64074 12.1753 3.92566 12.011 4.24242L7.00663 13.8908C6.89603 14.1041 6.88564 14.3476 6.97775 14.5678C7.06986 14.7881 7.25693 14.967 7.4978 15.0652C7.73867 15.1635 8.01361 15.173 8.26214 15.0916C8.51067 15.0103 8.71243 14.8448 8.82303 14.6316L13.4104 5.78721L15.2268 6.52796L10.6394 15.3723C10.3076 16.0121 9.70235 16.5085 8.95676 16.7525C8.21117 16.9965 7.38634 16.968 6.66373 16.6733C5.94112 16.3786 5.37992 15.8419 5.10358 15.1811C4.82725 14.5204 4.85842 13.7898 5.19023 13.1501L10.1946 3.50167C10.7476 2.43546 11.7564 1.60802 12.9991 1.20138C14.2417 0.79475 15.6164 0.84223 16.8208 1.33338V1.33338Z" fill="#307FE2"/>
</svg>
