<svg width="18" height="16" viewBox="0 0 18 16" fill="none" xmlns="http://www.w3.org/2000/svg">
<path opacity="0.45" d="M3.31608 12.6309C2.59026 12.6309 1.89417 12.3426 1.38094 11.8294C0.867707 11.3161 0.579376 10.6201 0.579376 9.89423V2.7367C0.579376 2.01088 0.867707 1.31479 1.38094 0.801562C1.89417 0.28833 2.59026 0 3.31608 0H14.6839C15.0433 0 15.3992 0.0707869 15.7312 0.208319C16.0632 0.345851 16.3649 0.547435 16.6191 0.801562C16.8732 1.05569 17.0748 1.35738 17.2123 1.68941C17.3498 2.02144 17.4206 2.37731 17.4206 2.7367V9.89423C17.4206 10.2536 17.3498 10.6095 17.2123 10.9415C17.0748 11.2736 16.8732 11.5752 16.6191 11.8294C16.3649 12.0835 16.0632 12.2851 15.7312 12.4226C15.3992 12.5602 15.0433 12.6309 14.6839 12.6309H9.81259L5.2764 15.8451C5.15044 15.9343 5.00237 15.9872 4.84839 15.998C4.6944 16.0087 4.54043 15.9769 4.40328 15.9061C4.26613 15.8353 4.15109 15.7281 4.07073 15.5963C3.99037 15.4645 3.94779 15.3132 3.94763 15.1588V12.6309H3.31608Z" fill="#444444"/>
</svg>
