<svg width="16" height="17" viewBox="0 0 16 17" fill="none" xmlns="http://www.w3.org/2000/svg">
<path fill-rule="evenodd" clip-rule="evenodd" d="M5.32293 1.21324C6.1243 0.0110598 7.91599 0.0902548 8.60816 1.35845L10.5957 5H12.0022C12.2675 5 12.5219 5.10538 12.7094 5.29297C12.897 5.48055 13.0023 5.73496 13.0022 6.00021L13.0003 15.0002C13.0002 15.5524 12.5525 16 12.0003 16H5.4068C3.53201 16 1.90876 14.6979 1.50206 12.8677L0.294531 7.43386C0.0169703 6.18483 0.967409 5 2.24691 5H5.00029V2.27894C5.00029 1.89965 5.11255 1.52884 5.32293 1.21324ZM9.12447 6.47908L7.00029 2.58717V6C7.00029 6.26521 6.89493 6.51957 6.7074 6.7071C6.51986 6.89464 6.26551 7 6.00029 7H2.24691L3.45443 12.4339C3.65778 13.3489 4.46941 14 5.40681 14L11.0005 14L11.002 7H10.0022C9.63639 7 9.29974 6.80021 9.12447 6.47908ZM16 6V15C16 15.5523 15.5523 16 15 16C14.4477 16 14 15.5523 14 15V6C14 5.44771 14.4477 5 15 5C15.5523 5 16 5.44771 16 6Z" fill="#4176EA"/>
</svg>
