<svg width="20" height="16" viewBox="0 0 20 16" fill="none" xmlns="http://www.w3.org/2000/svg">
<path d="M10.7833 0.366293L6.21045 4.93919C5.90504 5.2446 5.7317 5.66557 5.7317 6.10305V14.3491C5.7317 15.2571 6.47459 16 7.38257 16H14.8115C15.4718 16 16.0661 15.6038 16.3303 15.0012L19.0212 8.71968C19.7145 7.08532 18.5177 5.26937 16.743 5.26937H12.0793L12.8634 1.48888C12.946 1.07617 12.8222 0.655194 12.525 0.358038C12.038 -0.120713 11.2621 -0.120713 10.7833 0.366293ZM2.42997 16C3.33794 16 4.08083 15.2571 4.08083 14.3491V7.74567C4.08083 6.83769 3.33794 6.0948 2.42997 6.0948C1.52199 6.0948 0.779099 6.83769 0.779099 7.74567V14.3491C0.779099 15.2571 1.52199 16 2.42997 16Z" fill="#08AC71"/>
</svg>
