<svg width="20" height="16" viewBox="0 0 20 16" fill="none" xmlns="http://www.w3.org/2000/svg">
<path d="M9.21667 15.6337L13.7896 11.0608C14.095 10.7554 14.2683 10.3344 14.2683 9.89695V1.65087C14.2683 0.742889 13.5254 0 12.6175 0H5.18855C4.5282 0 3.93389 0.396207 3.66975 0.998774L0.97884 7.28032C0.285477 8.91468 1.48236 10.7306 3.25704 10.7306H7.92074L7.13657 14.5111C7.05403 14.9238 7.17785 15.3448 7.475 15.642C7.96201 16.1207 8.73791 16.1207 9.21667 15.6337ZM17.5701 0C16.6621 0 15.9192 0.742889 15.9192 1.65087V8.25433C15.9192 9.16231 16.6621 9.9052 17.5701 9.9052C18.478 9.9052 19.2209 9.16231 19.2209 8.25433V1.65087C19.2209 0.742889 18.478 0 17.5701 0Z" fill="#D50808"/>
</svg>
